<svg version="1.1" id="Layer_1" xmlns="http://www.w3.org/2000/svg" xmlns:xlink="http://www.w3.org/1999/xlink" x="0px" y="0px"
	 width="100%" viewBox="0 0 196 146" enable-background="new 0 0 196 146" xml:space="preserve">
<path fill="#181817" opacity="1.000000" stroke="none" 
	d="
M137.000000,147.000000 
	C92.500000,147.000000 48.499901,146.962296 4.500238,147.083542 
	C1.517071,147.091766 0.908941,146.482925 0.916619,143.499802 
	C1.035866,97.166771 1.035861,50.833260 0.916625,4.500231 
	C0.908949,1.517192 1.517526,0.912295 4.500126,0.917458 
	C67.499931,1.026532 130.500015,1.026528 193.499832,0.917469 
	C196.482300,0.912306 197.091080,1.517015 197.083405,4.500186 
	C196.964157,50.833214 196.964127,97.166725 197.083374,143.499756 
	C197.091049,146.482758 196.486481,147.114639 193.499222,147.087051 
	C174.834152,146.914612 156.166672,147.000000 137.000000,147.000000 
z"/>
<path fill="#47D27A" opacity="1.000000" stroke="none" 
	d="
M14.640038,26.712254 
	C54.505554,25.255045 88.476700,41.331875 121.400703,60.502499 
	C145.466431,74.515221 167.843597,90.986771 189.472916,108.483200 
	C190.851654,109.598488 193.818039,110.573990 192.038895,112.963806 
	C190.060287,115.621559 188.510971,112.561104 187.242294,111.561974 
	C162.639999,92.186424 137.429108,73.702019 109.955902,58.524094 
	C88.461487,46.649212 66.172012,36.829597 41.777546,32.493210 
	C33.199654,30.968391 24.584738,30.705795 15.454519,31.095543 
	C14.551333,31.457600 14.071218,31.560078 13.230776,31.256758 
	C12.044902,29.971319 11.578847,28.856722 12.768622,27.339676 
	C13.301465,26.651405 13.753341,26.467566 14.640038,26.712254 
z"/>
<path fill="#EC6B7E" opacity="1.000000" stroke="none" 
	d="
M13.206614,50.239845 
	C12.023782,48.901653 11.594428,47.771210 12.745045,46.228863 
	C13.330676,45.599762 13.796356,45.468090 14.620121,45.814224 
	C35.122799,50.398045 54.764637,56.479065 73.771996,64.679214 
	C111.851189,81.107323 146.985199,102.676567 181.254776,125.784706 
	C184.568130,128.018921 187.903244,130.222641 191.169067,132.524475 
	C192.085861,133.170654 193.099655,133.993607 192.371323,135.420273 
	C191.455231,137.214737 190.192108,136.366196 188.692749,135.728424 
	C186.677612,135.462860 185.082947,134.713867 183.016907,134.360672 
	C179.975067,130.989258 175.833359,129.986908 172.492920,127.721481 
	C145.761765,109.592934 118.222366,92.849205 89.084755,78.789284 
	C67.747932,68.493538 45.931812,59.634491 22.718290,54.528316 
	C20.608423,54.064217 18.503702,53.555099 16.160213,52.559021 
	C14.910740,51.923645 14.221065,51.181286 13.206614,50.239845 
z"/>
<path fill="#494949" opacity="1.000000" stroke="none" 
	d="
M184.131683,132.810455 
	C185.735626,133.691055 186.883011,134.412796 188.220245,135.365234 
	C186.080582,135.679214 183.751083,135.834656 181.421555,135.835251 
	C127.942451,135.849030 74.463341,135.848724 20.984240,135.843033 
	C12.843347,135.842163 12.826084,135.823853 12.827932,127.893143 
	C12.833911,102.236694 12.853737,76.580246 12.898859,50.452660 
	C13.819673,50.065624 14.709855,50.149723 15.794424,50.507797 
	C17.522791,53.876827 17.471231,57.211563 17.474245,60.541042 
	C17.491709,79.835411 17.471191,99.129784 17.485992,118.424156 
	C17.487522,120.418823 17.443090,122.416336 17.750637,124.399254 
	C18.277321,127.795082 20.269335,129.711578 23.632557,130.241898 
	C25.944969,130.606522 28.278465,130.513763 30.605267,130.514221 
	C76.845238,130.523361 123.085236,130.535065 169.325150,130.491638 
	C174.247879,130.487015 179.051315,130.867096 184.131683,132.810455 
z"/>
<path fill="#4D4D4D" opacity="1.000000" stroke="none" 
	d="
M14.910946,45.589981 
	C14.472759,46.038834 14.033348,46.019165 13.262484,45.982235 
	C12.910665,41.301800 12.890300,36.638626 12.891251,31.511873 
	C13.376051,31.054981 13.839536,31.061672 14.646177,31.113083 
	C14.962796,35.812355 14.936258,40.466904 14.910946,45.589981 
z"/>
<path fill="#4C4C4C" opacity="1.000000" stroke="none" 
	d="
M14.961302,26.446785 
	C14.528017,26.953272 14.078964,27.006130 13.288645,27.067299 
	C13.048740,23.114511 12.222840,19.087112 13.804156,14.068124 
	C15.600401,18.666313 14.583669,22.403473 14.961302,26.446785 
z"/>
<path fill="#181818" opacity="1.000000" stroke="none" 
	d="
M184.362122,132.683762 
	C182.266663,133.092880 179.945114,133.323395 177.623489,133.324326 
	C126.045372,133.344986 74.467255,133.342575 22.889141,133.338043 
	C14.957756,133.337341 14.947797,133.322556 14.945853,125.298874 
	C14.940411,102.837433 14.929151,80.375977 14.967976,57.914600 
	C14.971677,55.773396 15.310621,53.632771 15.741369,51.136826 
	C31.995079,52.568317 46.999020,57.990490 61.824825,63.824947 
	C105.710587,81.095497 145.546860,105.648422 184.362122,132.683762 
z"/>
</svg>